<?xml version="1.0" standalone="no"?><!DOCTYPE svg PUBLIC "-//W3C//DTD SVG 1.1//EN" "http://www.w3.org/Graphics/SVG/1.1/DTD/svg11.dtd"><svg t="1706504623438" class="icon" viewBox="0 0 1024 1024" version="1.1" xmlns="http://www.w3.org/2000/svg" p-id="46051" xmlns:xlink="http://www.w3.org/1999/xlink" width="200" height="200"><path d="M1010.432 364.330667c6.997333 0 14.506667 2.730667 13.482667 10.368v93.738666c0 7.68-7.04 17.493333-14.592 17.493334h-16.682667c-10.24 179.328-116.48 343.466667-282.026667 417.578666v103.04c0 7.637333-5.930667 17.450667-13.44 17.450667H347.733333c-6.954667 0-12.373333-9.813333-12.373333-17.450667v-93.781333C164.437333 844.074667 42.069333 671.274667 31.274667 485.888H11.306667c-6.997333 0-11.306667-9.813333-11.306667-17.450667V374.698667c0-7.68 3.754667-10.368 11.306667-10.368zM394.666667 196.394667c99.2 0 186.026667 46.336 236.16 133.034666H159.061333C208.64 242.773333 295.466667 196.394667 394.666667 196.394667zM615.722667 42.666667c160.170667 0 292.266667 113.408 307.882666 286.762666h-253.44C611.413333 219.861333 509.013333 158.293333 392.021333 157.696h-16.725333A307.029333 307.029333 0 0 1 615.722667 42.666667z" fill="#FF9F10" p-id="46052"></path></svg>