<?xml version="1.0" standalone="no"?><!DOCTYPE svg PUBLIC "-//W3C//DTD SVG 1.1//EN" "http://www.w3.org/Graphics/SVG/1.1/DTD/svg11.dtd"><svg t="1706503774515" class="icon" viewBox="0 0 1024 1024" version="1.1" xmlns="http://www.w3.org/2000/svg" p-id="31051" xmlns:xlink="http://www.w3.org/1999/xlink" width="200" height="200"><path d="M824 293.76h-156v-99.824C668 166.464 644.592 144 616 144h-208c-28.592 0-52 22.48-52 49.936v99.84H200c-57.216 0-104 44.912-104 99.84v399.392c0 54.944 46.784 99.84 104 99.84h624c57.2 0 104-44.896 104-99.84V393.632c0-54.944-46.8-99.856-104-99.856z m-416-99.824h208v99.84h-208v-99.84zM720 643.232h-156v149.776h-104v-149.76H304v-99.84h156v-149.776h104v149.76H720v99.84z" fill="#FE9120" p-id="31052"></path></svg>