<?xml version="1.0" standalone="no"?><!DOCTYPE svg PUBLIC "-//W3C//DTD SVG 1.1//EN" "http://www.w3.org/Graphics/SVG/1.1/DTD/svg11.dtd"><svg t="1706505201941" class="icon" viewBox="0 0 1024 1024" version="1.1" xmlns="http://www.w3.org/2000/svg" p-id="52508" xmlns:xlink="http://www.w3.org/1999/xlink" width="200" height="200"><path d="M800.4 653.1c-16.1 0-31.2 2.7-45.2 7.8-1.1-0.9-1.6-1.8-2.7-2.7L465.3 415.5c-19.4-16.4-47.3-21.9-72.6-16l-0.5-0.5c-0.5 0.5-1.6 0.5-2.1 0.9-9.2 2.3-18.3 6.4-26.4 12.3-176.4 90-297.4 306.9-297.4 486.5 0 25.1-4.3 37 0 61.2h552.9V723.4l27.4 23.3c4.8 4.1 9.7 7.3 15.1 10 2.7 22.8 25.3 40.7 52.7 40.7 25.8 0 47.3-15.5 52.2-36.1h1.1v-9.1c0-15.1 14.5-26.9 31.7-26.9 17.8 0 31.7 12.3 31.7 27V960h85V752.2c1-54.8-51.2-99.1-115.7-99.1m158.1-461.4c-4.3-15.5-57.6-36-74.2-32l-10.2 2.5-50.6-53c-5.4-5.5-32.3-31-52.7-42-29.1-15.5-254.4 29-283.5 70.5-12.4 18-17.7 39-20.4 49l-17.8 81.5-10.2 2.5c-16.7 4-51.6 46.5-47.3 62 4.3 15.5 21.5 25 38.7 20.5l67.8-16.5c16.1 80 92 140.6 182.9 140.6 102.7 0 186.1-77 186.1-172.1 0-20-3.8-39.5-10.8-57.5l79.6-20c17.2-4.5 27.5-20.5 22.6-36m-140.9-89l5.9 6.5c2.2 2.5 1.1 1-5.9-6.5" fill="#ff9f10" p-id="52509"></path></svg>